<svg width="18" height="18" viewBox="0 0 21 21" version="1.1" xmlns="http://www.w3.org/2000/svg" xmlns:xlink="http://www.w3.org/1999/xlink">
  <g stroke="none" stroke-width="1" fill="none" fill-rule="evenodd">
    <g transform="translate(-850.000000, -2681.000000)">
      <g transform="translate(100.000000, 2626.000000)">
        <g transform="translate(748.000000, 54.000000)">
          <g>
            <polygon id="Path" points="0 0 24 0 24 24 0 24"></polygon>
            <path d="M10.21,16.83 L12.96,13.29 L16.5,18 L5.5,18 L8.25,14.47 L10.21,16.83 Z M20,4 L23,4 L23,6 L20,6 L20,8.99 L18,8.99 L18,6 L15,6 L15,4 L18,4 L18,1 L20,1 L20,4 Z M18,20 L18,10 L20,10 L20,20 C20,21.1 19.1,22 18,22 L4,22 C2.9,22 2,21.1 2,20 L2,6 C2,4.9 2.9,4 4,4 L14,4 L14,6 L4,6 L4,20 L18,20 Z" fill="#dee2e6"></path>
            <path d="M16.5,18 L5.5,18 L8.25,14.47 L10.21,16.83 L12.96,13.29 L16.5,18 Z M17,7 L14,7 L14,6 L4,6 L4,20 L18,20 L18,10 L17,10 L17,7 Z"></path>
          </g>
        </g>
      </g>
    </g>
  </g>
</svg>
